<svg xmlns="http://www.w3.org/2000/svg" width="1440" height="1440" version="1.0" viewBox="0 0 1080 1080"><path d="M596.1 45.5c-5.1 3-9.5 5.5-9.6 5.5-.2 0-5 3.1-10.8 6.9-40.2 26.6-68.5 64.3-82.7 110.1-1.6 5.2-3.1 10.6-3.4 12-.2 1.4-.9 4.5-1.5 7-3.8 16.6-5 35.8-3.7 56.3l.8 10.9-4.9-2.8c-2.6-1.5-7.7-4.5-11.2-6.6-3.4-2.1-6.5-3.8-6.6-3.8-.2 0-8.6-4.8-18.7-10.7-10.1-5.8-19.6-11.4-21.3-12.3-10-5.7-26.2-15.1-27.5-16-.8-.6-2.2-1.3-3-1.7-.8-.4-5.5-3.1-10.4-6s-9-5.3-9.2-5.3c-.2 0-6.7-3.8-14.6-8.4-7.9-4.5-16.3-9.4-18.8-10.8-2.5-1.4-11.1-6.4-19.2-11.2-8.1-4.7-15.2-8.6-15.7-8.6-1.2 0-15 23.8-20.6 35.6-4.1 8.5-11.8 29.9-12.9 35.4-.2 1.4-1.1 5.4-1.9 9-3.2 13.5-4.5 27.8-4.2 45.5.3 14.8.7 19.2 2.6 31 4.9 29.3 18.1 61 35.1 84.2l3.9 5.3H95.9l.2 18.7c.3 30.6 2.7 46.6 10.5 70 9.9 29.9 25.9 55.7 48.9 78.9 18.2 18.2 33.2 29 55.8 39.9 17.8 8.6 39.5 15.6 55.7 17.9 16.6 2.3 20.5 2.5 53 2.6l27.5.1-3.1 2.7c-1.7 1.5-4.1 3.6-5.5 4.7-1.3 1.1-4 3.3-5.9 4.9-12.7 10.4-38.5 35.9-52.7 52.1-33.7 38.6-62.8 84.4-82.2 129.5-1.2 3-2.9 6.8-3.6 8.5-.7 1.6-2.1 5-3 7.5-.9 2.5-2.1 5.4-2.6 6.5-9.2 20.8-22.5 71.6-27.4 104.5-.2 1.4-.6 4.3-1 6.6-.7 4.3-.9 6.2-2 18.9-.4 4.4-.9 9.1-1.1 10.5-.3 1.4-.7 16.1-1.1 32.7l-.6 30.3h264.2c185.2 0 264.1-.3 264.1-1.1 0-.5.4-.8.8-.5.6.4 12-1.6 22.2-3.9 25.7-5.7 54.1-19.1 77.2-36.6 9.9-7.5 28.3-25.7 35.9-35.4 13.6-17.3 26.6-41.4 33.2-61.2 3.6-10.8 8.3-30.4 8.9-37.3l.3-3.5 30.8-.3 30.9-.2-.3-22.3c-.3-19.4-.8-26.4-3.4-45.2-.3-2.2-1.2-6.8-2-10.1-.8-3.4-1.6-7.3-1.9-8.5-4.5-22.3-17.4-53-32.9-78.3-11.6-19-35.2-46.2-52.7-60.8-3-2.6-6.6-5.6-8-6.7l-2.5-2.1 2.5-2.1c1.4-1.2 4.5-3.7 7-5.7 9.2-7.4 30.8-30.1 39.2-41.2 28.7-38.1 47.3-82.4 52.4-125.5.3-2.8.8-6.1 1.2-7.5.3-1.4.8-81.2.9-177.3l.4-174.8-19.6.2c-17.2.2-37.2 1.8-42.3 3.3-.9.3-2.8.7-4.2 1-17.3 3-49.8 15.6-61.2 23.7-1.4 1.1-2.9 1.9-3.3 1.9-1.1 0-13.8 9.1-23.2 16.7-22.7 18.3-40.5 41.1-55 70.6l-3.8 7.8-4-6.8c-2.2-3.8-4.7-8.2-5.6-9.9-.9-1.6-7.4-12.9-14.4-25-7-12-13.8-23.7-15-25.9-1.3-2.2-5.6-9.6-9.5-16.5-4-6.9-8.1-14-9.1-15.8-5.5-9.6-20.1-34.9-20.9-36.2-.5-.8-3.7-6.2-7-12s-6.5-11.2-7-12c-1.3-2-8.1-13.8-10.1-17.4-.9-1.7-2-3.1-2.5-3.3-.5-.1-5.1 2.2-10.3 5.2zm-4.9 62.7c.2 1.1 9.4 17.4 14.9 26.6.9 1.5 5.9 10.1 11.1 19.2 37.2 64.4 55.6 96.3 66.4 115.1l12.5 21.6-.3 68.9c-.2 50-.6 69.4-1.5 70.9-1 1.7-1.5 1-5-6.6-13.8-29.7-42-65.6-68.3-86.9-3-2.5-6-5-6.7-5.6-1.9-1.9-24.4-16.9-29.3-19.6-2.5-1.4-11.2-6.5-19.5-11.3-8.2-4.8-16.5-9.5-18.2-10.4-2.6-1.2-3.8-2.8-5.8-8.1-4.4-11.8-7.6-25.6-9-39.5-.7-6.7-.8-24.9-.2-28 .3-1.1.8-4.7 1.1-8 2.7-22.8 14.3-51.1 29.3-71.4 5.7-7.7 25.5-28.1 27.2-28.1.5 0 1.1.6 1.3 1.2zm284.5 186.5c-.1 81.9-.5 149.7-.9 150.8-.3 1.1-.8 4.1-1.2 6.6-5.1 34.9-19.6 69.2-41.9 98.8-7 9.2-27.2 30.3-35.5 36.8-8 6.4-19.4 14.3-20.7 14.3-.7 0-3.6-1.1-6.3-2.5-2.8-1.4-5.5-2.5-6.1-2.5-1.8 0-1.3-1.5 2.8-8.2 20-32.9 33.3-72.8 36.9-110.8 1.4-14.9.6-52.8-1.3-63-.3-1.4-.8-4.2-1.1-6.4-.3-2.1-.8-4.8-1-6-.2-1.1-.7-3.5-1-5.1-1.7-10-8.5-31.7-14-45.2-5.4-13.1-11.1-24.3-21.8-42.8-7.6-12.9-13.1-22.5-15.4-26.6-2-3.6-2-3.6 0-13.5 1-5.4 3.5-14.5 5.4-20.1 3.4-10.1 11-26.5 12.6-27.1.4-.2.8-.8.8-1.4 0-4.5 26.4-35.3 36.8-42.9 1.9-1.3 3.9-2.9 4.5-3.4 5.6-4.8 22.6-14.3 34.2-19.1 8.4-3.4 28.8-9.3 32.8-9.4 1.7 0 1.8 6.3 1.4 148.7zM329 219.5c1.9 1.2 5.5 3.3 8 4.7 2.5 1.4 20.7 11.9 40.5 23.3 52.8 30.6 107.7 62.3 121.8 70.3 4.4 2.5 8.2 5.2 8.5 6.1.3.9 8.7 15.5 18.5 32.6 39.8 69 46.1 80.1 47.9 84.7 1 2.6 1.6 4.8 1.3 4.8-.3 0-4.5-2.6-9.3-5.8-24.1-16.1-51.2-28.3-79.7-35.8-23.3-6.1-36.4-7.5-76.5-8.1l-36.5-.5-3.5-2.6c-6.8-5-22.6-21.8-29-31-11.9-17-19.9-34.9-24.6-55.2-6.1-26.4-5.1-55.1 2.8-80.8 2.6-8.5 3.6-10.4 5.1-9.5.7.3 2.8 1.6 4.7 2.8zm277.1 169.2c5.7 6 12.6 13.7 15.4 17.3 2.7 3.6 5.2 6.7 5.5 7 .3.3 2.2 3.1 4.3 6.3 13.7 20.9 23 41.5 29.2 64.1 5 18.3 7.6 37.3 7.6 56.1.1 8.4-1 24.7-1.5 25.3-.2.1-1.1-1.9-2.1-4.5-3.2-8.6-14-29.6-21-40.8-3.8-6.1-7.1-11.2-7.4-11.5-.4-.3-3.1-3.9-6.2-8s-7.1-9.1-8.8-11c-2-2.3-3-4.2-2.7-5.5.3-1.1 1.6-6.3 2.9-11.5 4.2-16.1 2.8-36.1-3.5-51.5-2.2-5.4-20.5-38.1-23-41.3-.7-.8-.7-1.2-.1-1.2s5.7 4.8 11.4 10.7zm143.3 10.2c.3 1.4 1.3 5.7 2.1 9.6.9 3.8 1.8 8.9 2.1 11.1.2 2.3.7 5.3 1 6.5.3 1.3.7 11.2.9 21.9.5 32.9-4.1 57.7-16 87-5.5 13.3-17.9 35.4-24.8 44l-2 2.5.6-3.5c.6-3.4 1.1-7.4 2.2-17.5 1.8-16.6-.1-50.8-3.7-68.2-1.1-5.2-1.1-5.2 2.3-8 14.1-11.8 24.9-30.3 28.3-48.2.7-3.6 1.3-6.9 1.4-7.4.1-.4.2-10.9.3-23.5l.1-22.7 2.3 6.9c1.3 3.8 2.6 8.1 2.9 9.5zm-388.9 46.5c1.1.7 3.6 2.3 5.5 3.4 2.9 1.6 71.2 41.1 100.2 57.8 9.4 5.5 14.5 10.5 18.2 17.9 2.4 4.7 2.9 6.9 3 13.6l.1 7.9-14.5 5.9c-19 7.7-38.5 16.7-49 22.7-2.1 1.2-13.4 1.4-73 1.1-38.8-.2-71.8-.7-73.5-1.1-1.6-.4-6.4-1.4-10.5-2.2-49.2-9.9-92.9-47-111.9-95-3.7-9.4-7-20.9-8.5-29.7l-.7-3.7h106.3c88.8 0 106.7.2 108.3 1.4zm114.2 5.7c30.1 7.5 61 23.8 86.3 45.5 10 8.7 24 23 24 24.6 0 .5-1 .8-2.2.9-2.7.1-3.9.3-17.8 2.9-14.5 2.8-13.7 2.6-21.4 4.4-3.8.9-7.3 1.3-7.7.9-.4-.5-.9-2.8-1.2-5.4-.7-5.5-4-15.5-7.4-22.3-7.7-15.3-20.3-28.4-35.3-36.8-6.6-3.7-12.1-6.8-15.5-8.9-1.6-1-5.2-3-8-4.4-9.3-5-8.7-5.2 6.2-1.4zm142.4 120.7c1.2 3.1 2.5 6.1 2.9 6.7 1.7 2.3 8.9 25.7 10.9 35 5 24 4.9 19 5 206.8L636 996l-215.7-.2c-143.2-.2-215.8-.6-215.7-1.3.1-.6.5-5.3.9-10.5.3-5.2.8-10.9 1-12.5.2-1.7.7-5.3 1-8 1.4-10.9 1.5-12 3.2-21.5.7-4.1.6-3.5 3.2-16.5 4.6-22.6 15.6-59.2 22.6-75 .7-1.7 2.8-6.4 4.5-10.5 33.5-79.2 93.3-150.9 166.4-199.5 29.4-19.5 54.7-32.6 91.1-47 1.1-.4 2.5-.9 3-1.1.6-.2 6-2 12-4.2 22.6-7.9 47.7-14.2 72.5-18.2 4.1-.6 8.6-1.3 10-1.6 1.4-.2 5.2-.7 8.5-1 3.3-.4 6.1-.7 6.2-.8.1-.1 1.1-.2 2.2-.3 1.5-.1 2.4 1.2 4.2 5.5zm75.3 54.6c18.3 2.2 47 11.5 66.1 21.4 37.4 19.3 71.4 52.2 90.4 87.4 1.6 3.1 3.5 6.5 4 7.5 3.2 5.7 10.2 23.2 13.2 32.8.6 2.2 1.4 4.7 1.7 5.5.3.8.6 1.9.7 2.5.2.5.7 2.8 1.3 5 .6 2.2 1.3 5.3 1.6 7 1.5 8 2.5 14.3 3 17.3l.4 3.3-81.7-.3-81.6-.3-6.7-3.3c-8.2-4-13-8.8-17.1-17.2l-3.2-6.5-.3-81.7-.3-81.7 2.2.4c1.1.2 4 .7 6.3.9zm12.8 236.2c2.9.4 6 .8 6.8 1 .8.1 24.2.3 51.9.3l50.3.1-.6 3.2c-.3 1.8-.9 4.4-1.2 5.8-.3 1.4-.7 3.6-1 5-1.2 5.8-6.8 21.1-10.9 29.5-20.6 42.7-58.9 73.3-105.5 84.5-4.7 1.1-9.1 2-9.7 2-1 0-1.3-14.4-1.3-68.9v-68.8l8 2.8c4.3 1.6 10.3 3.1 13.2 3.5z"/><path d="M512.3 697c-20.5 4.1-38.2 17.2-48.5 36-4.9 9-7.7 20.8-7.6 32.3.1 30.9 20.1 57.3 50.3 66.2 8 2.4 24.9 2.8 33.5.8 25.5-5.8 46.1-26 52.1-50.9 1.9-7.8 2-22.6.4-30.6-5.3-25.1-24-45.1-49-52.3-6.7-1.9-24.5-2.8-31.2-1.5zm19.2 48.1c5.3 1.5 12 8.5 13.6 14.1 4.2 15.7-10.2 30.1-25.9 25.9-5.9-1.6-12.7-8.3-14.2-14-4.4-16.6 9.8-30.6 26.5-26z"/></svg>